<mxfile host="app.diagrams.net" agent="Mozilla/5.0 (Windows NT 10.0; Win64; x64) AppleWebKit/537.36 (KHTML, like Gecko) Chrome/126.0.0.0 Whale/3.27.254.15 Safari/537.36" version="24.7.6">
  <diagram id="C5RBs43oDa-KdzZeNtuy" name="Page-1">
    <mxGraphModel dx="1233" dy="1301" grid="1" gridSize="10" guides="1" tooltips="1" connect="1" arrows="1" fold="1" page="0" pageScale="1" pageWidth="827" pageHeight="1169" math="0" shadow="0">
      <root>
        <mxCell id="WIyWlLk6GJQsqaUBKTNV-0" />
        <mxCell id="WIyWlLk6GJQsqaUBKTNV-1" parent="WIyWlLk6GJQsqaUBKTNV-0" />
        <mxCell id="WfOOoD9RHd-EX-u53SII-0" value="&lt;b&gt;CloseShape&lt;/b&gt;&lt;div&gt;- Block&lt;/div&gt;&lt;div&gt;- Question&lt;/div&gt;&lt;div&gt;- Flag&lt;/div&gt;&lt;div style=&quot;&quot;&gt;- None&lt;/div&gt;" style="text;html=1;align=left;verticalAlign=top;whiteSpace=wrap;rounded=0;fontSize=16;fillColor=#b1ddf0;strokeColor=#10739e;" parent="WIyWlLk6GJQsqaUBKTNV-1" vertex="1">
          <mxGeometry x="440" y="-80" width="100" height="120" as="geometry" />
        </mxCell>
        <mxCell id="9ECx5bi9FFpaeB4Dtpib-195" style="edgeStyle=orthogonalEdgeStyle;rounded=0;orthogonalLoop=1;jettySize=auto;html=1;exitX=0.5;exitY=1;exitDx=0;exitDy=0;entryX=0.5;entryY=0;entryDx=0;entryDy=0;" edge="1" parent="WIyWlLk6GJQsqaUBKTNV-1" source="WfOOoD9RHd-EX-u53SII-17" target="WfOOoD9RHd-EX-u53SII-18">
          <mxGeometry relative="1" as="geometry" />
        </mxCell>
        <mxCell id="WfOOoD9RHd-EX-u53SII-17" value="보드 세팅" style="shape=hexagon;perimeter=hexagonPerimeter2;whiteSpace=wrap;html=1;fixedSize=1;fontSize=17;fillColor=#fff2cc;strokeColor=#d6b656;" parent="WIyWlLk6GJQsqaUBKTNV-1" vertex="1">
          <mxGeometry x="1000" y="-320" width="120" height="80" as="geometry" />
        </mxCell>
        <mxCell id="9ECx5bi9FFpaeB4Dtpib-194" style="edgeStyle=orthogonalEdgeStyle;rounded=0;orthogonalLoop=1;jettySize=auto;html=1;exitX=0.5;exitY=1;exitDx=0;exitDy=0;entryX=0.5;entryY=0;entryDx=0;entryDy=0;" edge="1" parent="WIyWlLk6GJQsqaUBKTNV-1" source="WfOOoD9RHd-EX-u53SII-18" target="WfOOoD9RHd-EX-u53SII-19">
          <mxGeometry relative="1" as="geometry" />
        </mxCell>
        <mxCell id="WfOOoD9RHd-EX-u53SII-18" value="가로 * 세로&lt;div&gt;배열 생성&lt;/div&gt;" style="rounded=0;whiteSpace=wrap;html=1;fillColor=#d5e8d4;strokeColor=#82b366;fontSize=17;align=center;" parent="WIyWlLk6GJQsqaUBKTNV-1" vertex="1">
          <mxGeometry x="1000" y="-200" width="120" height="80" as="geometry" />
        </mxCell>
        <mxCell id="9ECx5bi9FFpaeB4Dtpib-193" style="edgeStyle=orthogonalEdgeStyle;rounded=0;orthogonalLoop=1;jettySize=auto;html=1;exitX=0.5;exitY=1;exitDx=0;exitDy=0;entryX=0.5;entryY=0;entryDx=0;entryDy=0;" edge="1" parent="WIyWlLk6GJQsqaUBKTNV-1" source="WfOOoD9RHd-EX-u53SII-19" target="9ECx5bi9FFpaeB4Dtpib-31">
          <mxGeometry relative="1" as="geometry" />
        </mxCell>
        <mxCell id="WfOOoD9RHd-EX-u53SII-19" value="배열을&lt;div&gt;일반 블록으로&lt;/div&gt;&lt;div&gt;채운다.&lt;/div&gt;" style="rounded=0;whiteSpace=wrap;html=1;fillColor=#d5e8d4;strokeColor=#82b366;fontSize=17;" parent="WIyWlLk6GJQsqaUBKTNV-1" vertex="1">
          <mxGeometry x="1000" y="-80" width="120" height="80" as="geometry" />
        </mxCell>
        <mxCell id="9ECx5bi9FFpaeB4Dtpib-96" style="edgeStyle=orthogonalEdgeStyle;rounded=0;orthogonalLoop=1;jettySize=auto;html=1;exitX=0.5;exitY=1;exitDx=0;exitDy=0;entryX=0.5;entryY=0;entryDx=0;entryDy=0;" edge="1" parent="WIyWlLk6GJQsqaUBKTNV-1" source="WfOOoD9RHd-EX-u53SII-21" target="9ECx5bi9FFpaeB4Dtpib-75">
          <mxGeometry relative="1" as="geometry" />
        </mxCell>
        <mxCell id="WfOOoD9RHd-EX-u53SII-21" value="블록 선택" style="shape=parallelogram;perimeter=parallelogramPerimeter;whiteSpace=wrap;html=1;fixedSize=1;fillColor=#ffe6cc;strokeColor=#d79b00;fontSize=17;" parent="WIyWlLk6GJQsqaUBKTNV-1" vertex="1">
          <mxGeometry x="1000.1" y="1280" width="120" height="80" as="geometry" />
        </mxCell>
        <mxCell id="WfOOoD9RHd-EX-u53SII-61" value="&lt;span style=&quot;font-size: 17px;&quot;&gt;총 블록 갯수 : 가로 * 세로&lt;/span&gt;&lt;div style=&quot;font-size: 17px;&quot;&gt;지뢰 갯수 : 사용자 지정&lt;/div&gt;&lt;div style=&quot;font-size: 17px;&quot;&gt;일반 블록 갯수 : 총 블록 갯수 - 지뢰 갯수&lt;/div&gt;" style="text;html=1;align=left;verticalAlign=middle;whiteSpace=wrap;rounded=0;" parent="WIyWlLk6GJQsqaUBKTNV-1" vertex="1">
          <mxGeometry x="1160" y="40" width="320" height="80" as="geometry" />
        </mxCell>
        <mxCell id="WfOOoD9RHd-EX-u53SII-73" style="edgeStyle=orthogonalEdgeStyle;rounded=0;orthogonalLoop=1;jettySize=auto;html=1;entryX=0;entryY=0.5;entryDx=0;entryDy=0;" parent="WIyWlLk6GJQsqaUBKTNV-1" target="WfOOoD9RHd-EX-u53SII-72" edge="1">
          <mxGeometry relative="1" as="geometry">
            <mxPoint x="1120.1" y="1160" as="sourcePoint" />
          </mxGeometry>
        </mxCell>
        <mxCell id="WfOOoD9RHd-EX-u53SII-75" value="YES" style="edgeLabel;html=1;align=center;verticalAlign=middle;resizable=0;points=[];" parent="WfOOoD9RHd-EX-u53SII-73" vertex="1" connectable="0">
          <mxGeometry x="-0.9016" y="3" relative="1" as="geometry">
            <mxPoint x="10" y="3" as="offset" />
          </mxGeometry>
        </mxCell>
        <mxCell id="WfOOoD9RHd-EX-u53SII-74" style="edgeStyle=orthogonalEdgeStyle;rounded=0;orthogonalLoop=1;jettySize=auto;html=1;exitX=0.5;exitY=1;exitDx=0;exitDy=0;entryX=0.5;entryY=0;entryDx=0;entryDy=0;" parent="WIyWlLk6GJQsqaUBKTNV-1" source="WfOOoD9RHd-EX-u53SII-70" target="WfOOoD9RHd-EX-u53SII-21" edge="1">
          <mxGeometry relative="1" as="geometry" />
        </mxCell>
        <mxCell id="WfOOoD9RHd-EX-u53SII-76" value="NO" style="edgeLabel;html=1;align=center;verticalAlign=middle;resizable=0;points=[];" parent="WfOOoD9RHd-EX-u53SII-74" vertex="1" connectable="0">
          <mxGeometry x="-0.4571" relative="1" as="geometry">
            <mxPoint y="-9" as="offset" />
          </mxGeometry>
        </mxCell>
        <mxCell id="WfOOoD9RHd-EX-u53SII-70" value="종료조건을&lt;div style=&quot;font-size: 15px;&quot;&gt;충족하는가?&lt;/div&gt;" style="rhombus;whiteSpace=wrap;html=1;fillColor=#e1d5e7;strokeColor=#9673a6;fontSize=15;" parent="WIyWlLk6GJQsqaUBKTNV-1" vertex="1">
          <mxGeometry x="1000.1" y="1120" width="120" height="80" as="geometry" />
        </mxCell>
        <mxCell id="WfOOoD9RHd-EX-u53SII-72" value="게임 종료&lt;div&gt;(승리)&lt;/div&gt;" style="rounded=1;whiteSpace=wrap;html=1;fillColor=#dae8fc;strokeColor=#6c8ebf;fontSize=17;" parent="WIyWlLk6GJQsqaUBKTNV-1" vertex="1">
          <mxGeometry x="1200.1" y="1120" width="120" height="80" as="geometry" />
        </mxCell>
        <mxCell id="9ECx5bi9FFpaeB4Dtpib-13" style="edgeStyle=orthogonalEdgeStyle;rounded=0;orthogonalLoop=1;jettySize=auto;html=1;exitX=0.5;exitY=1;exitDx=0;exitDy=0;entryX=0.5;entryY=0;entryDx=0;entryDy=0;" edge="1" parent="WIyWlLk6GJQsqaUBKTNV-1" source="9ECx5bi9FFpaeB4Dtpib-9" target="9ECx5bi9FFpaeB4Dtpib-10">
          <mxGeometry relative="1" as="geometry" />
        </mxCell>
        <mxCell id="9ECx5bi9FFpaeB4Dtpib-47" value="YES" style="edgeLabel;html=1;align=center;verticalAlign=middle;resizable=0;points=[];" vertex="1" connectable="0" parent="9ECx5bi9FFpaeB4Dtpib-13">
          <mxGeometry x="-0.7206" relative="1" as="geometry">
            <mxPoint as="offset" />
          </mxGeometry>
        </mxCell>
        <mxCell id="9ECx5bi9FFpaeB4Dtpib-50" style="edgeStyle=orthogonalEdgeStyle;rounded=0;orthogonalLoop=1;jettySize=auto;html=1;exitX=1;exitY=0.5;exitDx=0;exitDy=0;entryX=1;entryY=0.5;entryDx=0;entryDy=0;" edge="1" parent="WIyWlLk6GJQsqaUBKTNV-1" source="9ECx5bi9FFpaeB4Dtpib-9" target="9ECx5bi9FFpaeB4Dtpib-52">
          <mxGeometry relative="1" as="geometry">
            <Array as="points">
              <mxPoint x="1400" y="564" />
              <mxPoint x="1400" y="800" />
            </Array>
          </mxGeometry>
        </mxCell>
        <mxCell id="9ECx5bi9FFpaeB4Dtpib-51" value="NO" style="edgeLabel;html=1;align=center;verticalAlign=middle;resizable=0;points=[];" vertex="1" connectable="0" parent="9ECx5bi9FFpaeB4Dtpib-50">
          <mxGeometry x="-0.8286" y="4" relative="1" as="geometry">
            <mxPoint x="-17" as="offset" />
          </mxGeometry>
        </mxCell>
        <mxCell id="9ECx5bi9FFpaeB4Dtpib-9" value="Number&lt;div&gt;타입인가?&lt;/div&gt;" style="rhombus;whiteSpace=wrap;html=1;fillColor=#e1d5e7;strokeColor=#9673a6;fontSize=15;" vertex="1" parent="WIyWlLk6GJQsqaUBKTNV-1">
          <mxGeometry x="1260" y="524" width="120" height="80" as="geometry" />
        </mxCell>
        <mxCell id="9ECx5bi9FFpaeB4Dtpib-18" style="edgeStyle=orthogonalEdgeStyle;rounded=0;orthogonalLoop=1;jettySize=auto;html=1;exitX=0.5;exitY=1;exitDx=0;exitDy=0;entryX=0.5;entryY=0;entryDx=0;entryDy=0;" edge="1" parent="WIyWlLk6GJQsqaUBKTNV-1" source="9ECx5bi9FFpaeB4Dtpib-10">
          <mxGeometry relative="1" as="geometry">
            <mxPoint x="1319.9999999999995" y="754" as="targetPoint" />
          </mxGeometry>
        </mxCell>
        <mxCell id="9ECx5bi9FFpaeB4Dtpib-10" value="plusNumber()" style="rounded=0;whiteSpace=wrap;html=1;fillColor=#d5e8d4;strokeColor=#82b366;fontSize=17;" vertex="1" parent="WIyWlLk6GJQsqaUBKTNV-1">
          <mxGeometry x="1260" y="644" width="120" height="80" as="geometry" />
        </mxCell>
        <mxCell id="9ECx5bi9FFpaeB4Dtpib-61" style="edgeStyle=orthogonalEdgeStyle;rounded=0;orthogonalLoop=1;jettySize=auto;html=1;exitX=0;exitY=0.5;exitDx=0;exitDy=0;entryX=1;entryY=0.75;entryDx=0;entryDy=0;" edge="1" parent="WIyWlLk6GJQsqaUBKTNV-1" source="9ECx5bi9FFpaeB4Dtpib-17" target="9ECx5bi9FFpaeB4Dtpib-35">
          <mxGeometry relative="1" as="geometry" />
        </mxCell>
        <mxCell id="9ECx5bi9FFpaeB4Dtpib-17" value="순회 종료" style="rounded=1;whiteSpace=wrap;html=1;fillColor=#dae8fc;strokeColor=#6c8ebf;fontSize=17;" vertex="1" parent="WIyWlLk6GJQsqaUBKTNV-1">
          <mxGeometry x="1260" y="880" width="120" height="80" as="geometry" />
        </mxCell>
        <mxCell id="9ECx5bi9FFpaeB4Dtpib-192" style="edgeStyle=orthogonalEdgeStyle;rounded=0;orthogonalLoop=1;jettySize=auto;html=1;exitX=0.5;exitY=1;exitDx=0;exitDy=0;entryX=0.5;entryY=0;entryDx=0;entryDy=0;" edge="1" parent="WIyWlLk6GJQsqaUBKTNV-1" source="9ECx5bi9FFpaeB4Dtpib-31" target="9ECx5bi9FFpaeB4Dtpib-32">
          <mxGeometry relative="1" as="geometry" />
        </mxCell>
        <mxCell id="9ECx5bi9FFpaeB4Dtpib-31" value="for 지뢰&lt;div&gt;갯수만큼&lt;/div&gt;" style="rounded=1;whiteSpace=wrap;html=1;fillColor=#dae8fc;strokeColor=#6c8ebf;fontSize=17;" vertex="1" parent="WIyWlLk6GJQsqaUBKTNV-1">
          <mxGeometry x="1000" y="40" width="120" height="80" as="geometry" />
        </mxCell>
        <mxCell id="9ECx5bi9FFpaeB4Dtpib-63" style="edgeStyle=orthogonalEdgeStyle;rounded=0;orthogonalLoop=1;jettySize=auto;html=1;entryX=0.5;entryY=0;entryDx=0;entryDy=0;" edge="1" parent="WIyWlLk6GJQsqaUBKTNV-1" source="9ECx5bi9FFpaeB4Dtpib-32" target="9ECx5bi9FFpaeB4Dtpib-33">
          <mxGeometry relative="1" as="geometry" />
        </mxCell>
        <mxCell id="9ECx5bi9FFpaeB4Dtpib-32" value="랜덤 숫자&amp;nbsp;&lt;div&gt;구하기&lt;/div&gt;&lt;div&gt;(size 만큼)&lt;/div&gt;" style="rounded=0;whiteSpace=wrap;html=1;fillColor=#d5e8d4;strokeColor=#82b366;fontSize=17;" vertex="1" parent="WIyWlLk6GJQsqaUBKTNV-1">
          <mxGeometry x="1000" y="160" width="120" height="80" as="geometry" />
        </mxCell>
        <mxCell id="9ECx5bi9FFpaeB4Dtpib-34" style="edgeStyle=orthogonalEdgeStyle;rounded=0;orthogonalLoop=1;jettySize=auto;html=1;exitX=1;exitY=0.5;exitDx=0;exitDy=0;entryX=1;entryY=0.5;entryDx=0;entryDy=0;" edge="1" parent="WIyWlLk6GJQsqaUBKTNV-1" source="9ECx5bi9FFpaeB4Dtpib-33" target="9ECx5bi9FFpaeB4Dtpib-32">
          <mxGeometry relative="1" as="geometry" />
        </mxCell>
        <mxCell id="9ECx5bi9FFpaeB4Dtpib-55" value="YES" style="edgeLabel;html=1;align=center;verticalAlign=middle;resizable=0;points=[];" vertex="1" connectable="0" parent="9ECx5bi9FFpaeB4Dtpib-34">
          <mxGeometry x="-0.8389" y="2" relative="1" as="geometry">
            <mxPoint as="offset" />
          </mxGeometry>
        </mxCell>
        <mxCell id="9ECx5bi9FFpaeB4Dtpib-38" style="edgeStyle=orthogonalEdgeStyle;rounded=0;orthogonalLoop=1;jettySize=auto;html=1;exitX=0.5;exitY=1;exitDx=0;exitDy=0;entryX=0.5;entryY=0;entryDx=0;entryDy=0;" edge="1" parent="WIyWlLk6GJQsqaUBKTNV-1" source="9ECx5bi9FFpaeB4Dtpib-33" target="9ECx5bi9FFpaeB4Dtpib-35">
          <mxGeometry relative="1" as="geometry" />
        </mxCell>
        <mxCell id="9ECx5bi9FFpaeB4Dtpib-56" value="NO" style="edgeLabel;html=1;align=center;verticalAlign=middle;resizable=0;points=[];" vertex="1" connectable="0" parent="9ECx5bi9FFpaeB4Dtpib-38">
          <mxGeometry x="-0.7559" relative="1" as="geometry">
            <mxPoint as="offset" />
          </mxGeometry>
        </mxCell>
        <mxCell id="9ECx5bi9FFpaeB4Dtpib-33" value="해당 인덱스의&lt;div&gt;&lt;span style=&quot;background-color: initial;&quot;&gt;블록이&amp;nbsp;&lt;/span&gt;&lt;div&gt;지뢰 타입인가?&lt;/div&gt;&lt;/div&gt;" style="rhombus;whiteSpace=wrap;html=1;fillColor=#e1d5e7;strokeColor=#9673a6;fontSize=15;" vertex="1" parent="WIyWlLk6GJQsqaUBKTNV-1">
          <mxGeometry x="1000" y="280" width="120" height="80" as="geometry" />
        </mxCell>
        <mxCell id="9ECx5bi9FFpaeB4Dtpib-39" style="edgeStyle=orthogonalEdgeStyle;rounded=0;orthogonalLoop=1;jettySize=auto;html=1;exitX=0.5;exitY=1;exitDx=0;exitDy=0;entryX=0.5;entryY=0;entryDx=0;entryDy=0;" edge="1" parent="WIyWlLk6GJQsqaUBKTNV-1" source="9ECx5bi9FFpaeB4Dtpib-35" target="9ECx5bi9FFpaeB4Dtpib-37">
          <mxGeometry relative="1" as="geometry" />
        </mxCell>
        <mxCell id="9ECx5bi9FFpaeB4Dtpib-46" style="edgeStyle=orthogonalEdgeStyle;rounded=0;orthogonalLoop=1;jettySize=auto;html=1;exitX=1;exitY=0.5;exitDx=0;exitDy=0;entryX=0;entryY=0.5;entryDx=0;entryDy=0;" edge="1" parent="WIyWlLk6GJQsqaUBKTNV-1" source="9ECx5bi9FFpaeB4Dtpib-35" target="9ECx5bi9FFpaeB4Dtpib-43">
          <mxGeometry relative="1" as="geometry" />
        </mxCell>
        <mxCell id="9ECx5bi9FFpaeB4Dtpib-35" value="해당 인덱스의&lt;div&gt;블록을 지뢰로&lt;/div&gt;&lt;div&gt;변경&lt;/div&gt;" style="rounded=0;whiteSpace=wrap;html=1;fillColor=#d5e8d4;strokeColor=#82b366;fontSize=17;" vertex="1" parent="WIyWlLk6GJQsqaUBKTNV-1">
          <mxGeometry x="1000" y="400" width="120" height="80" as="geometry" />
        </mxCell>
        <mxCell id="9ECx5bi9FFpaeB4Dtpib-108" style="edgeStyle=orthogonalEdgeStyle;rounded=0;orthogonalLoop=1;jettySize=auto;html=1;exitX=0.5;exitY=1;exitDx=0;exitDy=0;entryX=0.5;entryY=0;entryDx=0;entryDy=0;" edge="1" parent="WIyWlLk6GJQsqaUBKTNV-1" source="9ECx5bi9FFpaeB4Dtpib-36" target="9ECx5bi9FFpaeB4Dtpib-73">
          <mxGeometry relative="1" as="geometry" />
        </mxCell>
        <mxCell id="9ECx5bi9FFpaeB4Dtpib-36" value="순회종료" style="rounded=1;whiteSpace=wrap;html=1;fillColor=#dae8fc;strokeColor=#6c8ebf;fontSize=17;" vertex="1" parent="WIyWlLk6GJQsqaUBKTNV-1">
          <mxGeometry x="1000" y="640" width="120" height="80" as="geometry" />
        </mxCell>
        <mxCell id="9ECx5bi9FFpaeB4Dtpib-40" style="edgeStyle=orthogonalEdgeStyle;rounded=0;orthogonalLoop=1;jettySize=auto;html=1;exitX=0;exitY=0.5;exitDx=0;exitDy=0;entryX=0;entryY=0.75;entryDx=0;entryDy=0;" edge="1" parent="WIyWlLk6GJQsqaUBKTNV-1" source="9ECx5bi9FFpaeB4Dtpib-37" target="9ECx5bi9FFpaeB4Dtpib-32">
          <mxGeometry relative="1" as="geometry" />
        </mxCell>
        <mxCell id="9ECx5bi9FFpaeB4Dtpib-54" value="NO" style="edgeLabel;html=1;align=center;verticalAlign=middle;resizable=0;points=[];" vertex="1" connectable="0" parent="9ECx5bi9FFpaeB4Dtpib-40">
          <mxGeometry x="-0.9468" y="-1" relative="1" as="geometry">
            <mxPoint as="offset" />
          </mxGeometry>
        </mxCell>
        <mxCell id="9ECx5bi9FFpaeB4Dtpib-41" style="edgeStyle=orthogonalEdgeStyle;rounded=0;orthogonalLoop=1;jettySize=auto;html=1;exitX=0.5;exitY=1;exitDx=0;exitDy=0;entryX=0.5;entryY=0;entryDx=0;entryDy=0;" edge="1" parent="WIyWlLk6GJQsqaUBKTNV-1" source="9ECx5bi9FFpaeB4Dtpib-37" target="9ECx5bi9FFpaeB4Dtpib-36">
          <mxGeometry relative="1" as="geometry" />
        </mxCell>
        <mxCell id="9ECx5bi9FFpaeB4Dtpib-53" value="YES" style="edgeLabel;html=1;align=center;verticalAlign=middle;resizable=0;points=[];" vertex="1" connectable="0" parent="9ECx5bi9FFpaeB4Dtpib-41">
          <mxGeometry x="-0.5206" y="1" relative="1" as="geometry">
            <mxPoint as="offset" />
          </mxGeometry>
        </mxCell>
        <mxCell id="9ECx5bi9FFpaeB4Dtpib-37" value="지뢰를 전부&lt;div&gt;설치했는가?&lt;/div&gt;" style="rhombus;whiteSpace=wrap;html=1;fillColor=#e1d5e7;strokeColor=#9673a6;fontSize=15;" vertex="1" parent="WIyWlLk6GJQsqaUBKTNV-1">
          <mxGeometry x="1000" y="520" width="120" height="80" as="geometry" />
        </mxCell>
        <mxCell id="9ECx5bi9FFpaeB4Dtpib-45" style="edgeStyle=orthogonalEdgeStyle;rounded=0;orthogonalLoop=1;jettySize=auto;html=1;exitX=0.5;exitY=1;exitDx=0;exitDy=0;entryX=0.5;entryY=0;entryDx=0;entryDy=0;" edge="1" parent="WIyWlLk6GJQsqaUBKTNV-1" source="9ECx5bi9FFpaeB4Dtpib-43" target="9ECx5bi9FFpaeB4Dtpib-9">
          <mxGeometry relative="1" as="geometry" />
        </mxCell>
        <mxCell id="9ECx5bi9FFpaeB4Dtpib-43" value="해당 지뢰&lt;div&gt;주위 8블록&lt;/div&gt;&lt;div&gt;확인&lt;/div&gt;" style="rounded=1;whiteSpace=wrap;html=1;fillColor=#dae8fc;strokeColor=#6c8ebf;fontSize=17;" vertex="1" parent="WIyWlLk6GJQsqaUBKTNV-1">
          <mxGeometry x="1260" y="400" width="120" height="80" as="geometry" />
        </mxCell>
        <mxCell id="9ECx5bi9FFpaeB4Dtpib-57" style="edgeStyle=orthogonalEdgeStyle;rounded=0;orthogonalLoop=1;jettySize=auto;html=1;exitX=0.5;exitY=1;exitDx=0;exitDy=0;entryX=0.5;entryY=0;entryDx=0;entryDy=0;" edge="1" parent="WIyWlLk6GJQsqaUBKTNV-1" source="9ECx5bi9FFpaeB4Dtpib-52" target="9ECx5bi9FFpaeB4Dtpib-17">
          <mxGeometry relative="1" as="geometry" />
        </mxCell>
        <mxCell id="9ECx5bi9FFpaeB4Dtpib-58" value="YES" style="edgeLabel;html=1;align=center;verticalAlign=middle;resizable=0;points=[];" vertex="1" connectable="0" parent="9ECx5bi9FFpaeB4Dtpib-57">
          <mxGeometry x="-0.6588" y="1" relative="1" as="geometry">
            <mxPoint as="offset" />
          </mxGeometry>
        </mxCell>
        <mxCell id="9ECx5bi9FFpaeB4Dtpib-59" style="edgeStyle=orthogonalEdgeStyle;rounded=0;orthogonalLoop=1;jettySize=auto;html=1;exitX=0;exitY=0.5;exitDx=0;exitDy=0;entryX=0;entryY=0.5;entryDx=0;entryDy=0;" edge="1" parent="WIyWlLk6GJQsqaUBKTNV-1" source="9ECx5bi9FFpaeB4Dtpib-52" target="9ECx5bi9FFpaeB4Dtpib-9">
          <mxGeometry relative="1" as="geometry" />
        </mxCell>
        <mxCell id="9ECx5bi9FFpaeB4Dtpib-60" value="NO" style="edgeLabel;html=1;align=center;verticalAlign=middle;resizable=0;points=[];" vertex="1" connectable="0" parent="9ECx5bi9FFpaeB4Dtpib-59">
          <mxGeometry x="-0.9564" relative="1" as="geometry">
            <mxPoint as="offset" />
          </mxGeometry>
        </mxCell>
        <mxCell id="9ECx5bi9FFpaeB4Dtpib-52" value="주위 8개를&lt;div&gt;다 확인했는가?&lt;/div&gt;" style="rhombus;whiteSpace=wrap;html=1;fillColor=#e1d5e7;strokeColor=#9673a6;fontSize=15;" vertex="1" parent="WIyWlLk6GJQsqaUBKTNV-1">
          <mxGeometry x="1260" y="760" width="120" height="80" as="geometry" />
        </mxCell>
        <mxCell id="9ECx5bi9FFpaeB4Dtpib-74" style="edgeStyle=orthogonalEdgeStyle;rounded=0;orthogonalLoop=1;jettySize=auto;html=1;exitX=0.5;exitY=1;exitDx=0;exitDy=0;entryX=0.5;entryY=0;entryDx=0;entryDy=0;" edge="1" parent="WIyWlLk6GJQsqaUBKTNV-1" source="9ECx5bi9FFpaeB4Dtpib-73" target="WfOOoD9RHd-EX-u53SII-70">
          <mxGeometry relative="1" as="geometry" />
        </mxCell>
        <mxCell id="9ECx5bi9FFpaeB4Dtpib-73" value="게임 진행" style="shape=hexagon;perimeter=hexagonPerimeter2;whiteSpace=wrap;html=1;fixedSize=1;fontSize=17;fillColor=#fff2cc;strokeColor=#d6b656;" vertex="1" parent="WIyWlLk6GJQsqaUBKTNV-1">
          <mxGeometry x="1000.1" y="1000" width="120" height="80" as="geometry" />
        </mxCell>
        <mxCell id="9ECx5bi9FFpaeB4Dtpib-97" style="edgeStyle=orthogonalEdgeStyle;rounded=0;orthogonalLoop=1;jettySize=auto;html=1;exitX=0.5;exitY=1;exitDx=0;exitDy=0;entryX=0.5;entryY=0;entryDx=0;entryDy=0;" edge="1" parent="WIyWlLk6GJQsqaUBKTNV-1" source="9ECx5bi9FFpaeB4Dtpib-75" target="9ECx5bi9FFpaeB4Dtpib-78">
          <mxGeometry relative="1" as="geometry" />
        </mxCell>
        <mxCell id="9ECx5bi9FFpaeB4Dtpib-98" value="YES" style="edgeLabel;html=1;align=center;verticalAlign=middle;resizable=0;points=[];" vertex="1" connectable="0" parent="9ECx5bi9FFpaeB4Dtpib-97">
          <mxGeometry x="-0.4944" y="1" relative="1" as="geometry">
            <mxPoint as="offset" />
          </mxGeometry>
        </mxCell>
        <mxCell id="9ECx5bi9FFpaeB4Dtpib-105" style="edgeStyle=orthogonalEdgeStyle;rounded=0;orthogonalLoop=1;jettySize=auto;html=1;exitX=0;exitY=0.5;exitDx=0;exitDy=0;" edge="1" parent="WIyWlLk6GJQsqaUBKTNV-1" source="9ECx5bi9FFpaeB4Dtpib-75">
          <mxGeometry relative="1" as="geometry">
            <mxPoint x="1060" y="1240" as="targetPoint" />
            <Array as="points">
              <mxPoint x="960" y="1440" />
              <mxPoint x="960" y="1240" />
            </Array>
          </mxGeometry>
        </mxCell>
        <mxCell id="9ECx5bi9FFpaeB4Dtpib-106" value="NO" style="edgeLabel;html=1;align=center;verticalAlign=middle;resizable=0;points=[];" vertex="1" connectable="0" parent="9ECx5bi9FFpaeB4Dtpib-105">
          <mxGeometry x="-0.8709" y="-1" relative="1" as="geometry">
            <mxPoint as="offset" />
          </mxGeometry>
        </mxCell>
        <mxCell id="9ECx5bi9FFpaeB4Dtpib-75" value="CloseShape가&lt;div&gt;Block인가?&lt;/div&gt;" style="rhombus;whiteSpace=wrap;html=1;fillColor=#e1d5e7;strokeColor=#9673a6;fontSize=15;" vertex="1" parent="WIyWlLk6GJQsqaUBKTNV-1">
          <mxGeometry x="1000.1" y="1400" width="120" height="80" as="geometry" />
        </mxCell>
        <mxCell id="9ECx5bi9FFpaeB4Dtpib-99" style="edgeStyle=orthogonalEdgeStyle;rounded=0;orthogonalLoop=1;jettySize=auto;html=1;exitX=1;exitY=0.5;exitDx=0;exitDy=0;entryX=0;entryY=0.5;entryDx=0;entryDy=0;" edge="1" parent="WIyWlLk6GJQsqaUBKTNV-1" source="9ECx5bi9FFpaeB4Dtpib-78" target="9ECx5bi9FFpaeB4Dtpib-81">
          <mxGeometry relative="1" as="geometry" />
        </mxCell>
        <mxCell id="9ECx5bi9FFpaeB4Dtpib-100" value="YES" style="edgeLabel;html=1;align=center;verticalAlign=middle;resizable=0;points=[];" vertex="1" connectable="0" parent="9ECx5bi9FFpaeB4Dtpib-99">
          <mxGeometry x="-0.477" y="-3" relative="1" as="geometry">
            <mxPoint as="offset" />
          </mxGeometry>
        </mxCell>
        <mxCell id="9ECx5bi9FFpaeB4Dtpib-101" style="edgeStyle=orthogonalEdgeStyle;rounded=0;orthogonalLoop=1;jettySize=auto;html=1;exitX=0.5;exitY=1;exitDx=0;exitDy=0;entryX=0.5;entryY=0;entryDx=0;entryDy=0;" edge="1" parent="WIyWlLk6GJQsqaUBKTNV-1" source="9ECx5bi9FFpaeB4Dtpib-78">
          <mxGeometry relative="1" as="geometry">
            <mxPoint x="1060.1" y="1640" as="targetPoint" />
          </mxGeometry>
        </mxCell>
        <mxCell id="9ECx5bi9FFpaeB4Dtpib-102" value="NO" style="edgeLabel;html=1;align=center;verticalAlign=middle;resizable=0;points=[];" vertex="1" connectable="0" parent="9ECx5bi9FFpaeB4Dtpib-101">
          <mxGeometry x="-0.3833" y="2" relative="1" as="geometry">
            <mxPoint as="offset" />
          </mxGeometry>
        </mxCell>
        <mxCell id="9ECx5bi9FFpaeB4Dtpib-78" value="지뢰인가?" style="rhombus;whiteSpace=wrap;html=1;fillColor=#e1d5e7;strokeColor=#9673a6;fontSize=15;" vertex="1" parent="WIyWlLk6GJQsqaUBKTNV-1">
          <mxGeometry x="1000.1" y="1520" width="120" height="80" as="geometry" />
        </mxCell>
        <mxCell id="9ECx5bi9FFpaeB4Dtpib-81" value="게임 종료&lt;div&gt;(패배)&lt;/div&gt;" style="rounded=1;whiteSpace=wrap;html=1;fillColor=#dae8fc;strokeColor=#6c8ebf;fontSize=17;" vertex="1" parent="WIyWlLk6GJQsqaUBKTNV-1">
          <mxGeometry x="1200.1000000000001" y="1520" width="120" height="80" as="geometry" />
        </mxCell>
        <mxCell id="9ECx5bi9FFpaeB4Dtpib-168" style="edgeStyle=orthogonalEdgeStyle;rounded=0;orthogonalLoop=1;jettySize=auto;html=1;exitX=0.5;exitY=1;exitDx=0;exitDy=0;entryX=0.5;entryY=0;entryDx=0;entryDy=0;" edge="1" parent="WIyWlLk6GJQsqaUBKTNV-1" source="9ECx5bi9FFpaeB4Dtpib-110" target="9ECx5bi9FFpaeB4Dtpib-127">
          <mxGeometry relative="1" as="geometry" />
        </mxCell>
        <mxCell id="9ECx5bi9FFpaeB4Dtpib-110" value="내 기준&lt;div&gt;위, 오른쪽,&lt;/div&gt;&lt;div&gt;아래, 왼쪽 탐색&lt;/div&gt;" style="rounded=1;whiteSpace=wrap;html=1;fillColor=#dae8fc;strokeColor=#6c8ebf;fontSize=17;" vertex="1" parent="WIyWlLk6GJQsqaUBKTNV-1">
          <mxGeometry x="1000.1" y="2120" width="120" height="80" as="geometry" />
        </mxCell>
        <mxCell id="9ECx5bi9FFpaeB4Dtpib-114" style="edgeStyle=orthogonalEdgeStyle;rounded=0;orthogonalLoop=1;jettySize=auto;html=1;exitX=0.5;exitY=1;exitDx=0;exitDy=0;entryX=0.5;entryY=0;entryDx=0;entryDy=0;" edge="1" parent="WIyWlLk6GJQsqaUBKTNV-1" source="9ECx5bi9FFpaeB4Dtpib-111" target="9ECx5bi9FFpaeB4Dtpib-113">
          <mxGeometry relative="1" as="geometry" />
        </mxCell>
        <mxCell id="9ECx5bi9FFpaeB4Dtpib-111" value="Stack 생성&lt;div&gt;(갔던길 표시)&lt;/div&gt;" style="rounded=0;whiteSpace=wrap;html=1;fillColor=#d5e8d4;strokeColor=#82b366;fontSize=17;" vertex="1" parent="WIyWlLk6GJQsqaUBKTNV-1">
          <mxGeometry x="1000.1" y="1880" width="120" height="80" as="geometry" />
        </mxCell>
        <mxCell id="9ECx5bi9FFpaeB4Dtpib-115" style="edgeStyle=orthogonalEdgeStyle;rounded=0;orthogonalLoop=1;jettySize=auto;html=1;exitX=0.5;exitY=1;exitDx=0;exitDy=0;entryX=0.5;entryY=0;entryDx=0;entryDy=0;" edge="1" parent="WIyWlLk6GJQsqaUBKTNV-1" source="9ECx5bi9FFpaeB4Dtpib-113" target="9ECx5bi9FFpaeB4Dtpib-110">
          <mxGeometry relative="1" as="geometry" />
        </mxCell>
        <mxCell id="9ECx5bi9FFpaeB4Dtpib-113" value="Stack에&lt;div&gt;블록 삽입&lt;/div&gt;" style="rounded=0;whiteSpace=wrap;html=1;fillColor=#d5e8d4;strokeColor=#82b366;fontSize=17;" vertex="1" parent="WIyWlLk6GJQsqaUBKTNV-1">
          <mxGeometry x="1000.1" y="2000" width="120" height="80" as="geometry" />
        </mxCell>
        <mxCell id="9ECx5bi9FFpaeB4Dtpib-164" style="edgeStyle=orthogonalEdgeStyle;rounded=0;orthogonalLoop=1;jettySize=auto;html=1;exitX=0.5;exitY=1;exitDx=0;exitDy=0;entryX=0.5;entryY=0;entryDx=0;entryDy=0;" edge="1" parent="WIyWlLk6GJQsqaUBKTNV-1" source="9ECx5bi9FFpaeB4Dtpib-121" target="9ECx5bi9FFpaeB4Dtpib-131">
          <mxGeometry relative="1" as="geometry" />
        </mxCell>
        <mxCell id="9ECx5bi9FFpaeB4Dtpib-189" value="YES" style="edgeLabel;html=1;align=center;verticalAlign=middle;resizable=0;points=[];" vertex="1" connectable="0" parent="9ECx5bi9FFpaeB4Dtpib-164">
          <mxGeometry x="-0.4389" y="-2" relative="1" as="geometry">
            <mxPoint as="offset" />
          </mxGeometry>
        </mxCell>
        <mxCell id="9ECx5bi9FFpaeB4Dtpib-178" style="edgeStyle=orthogonalEdgeStyle;rounded=0;orthogonalLoop=1;jettySize=auto;html=1;exitX=0.5;exitY=0;exitDx=0;exitDy=0;" edge="1" parent="WIyWlLk6GJQsqaUBKTNV-1" source="9ECx5bi9FFpaeB4Dtpib-121">
          <mxGeometry relative="1" as="geometry">
            <mxPoint x="1060" y="2240" as="targetPoint" />
            <Array as="points">
              <mxPoint x="1420" y="2240" />
            </Array>
          </mxGeometry>
        </mxCell>
        <mxCell id="9ECx5bi9FFpaeB4Dtpib-190" value="NO" style="edgeLabel;html=1;align=center;verticalAlign=middle;resizable=0;points=[];" vertex="1" connectable="0" parent="9ECx5bi9FFpaeB4Dtpib-178">
          <mxGeometry x="-0.9448" y="3" relative="1" as="geometry">
            <mxPoint as="offset" />
          </mxGeometry>
        </mxCell>
        <mxCell id="9ECx5bi9FFpaeB4Dtpib-121" value="Stack이&lt;div&gt;비었는가?&lt;/div&gt;" style="rhombus;whiteSpace=wrap;html=1;fillColor=#e1d5e7;strokeColor=#9673a6;fontSize=15;" vertex="1" parent="WIyWlLk6GJQsqaUBKTNV-1">
          <mxGeometry x="1360" y="2480" width="120" height="80" as="geometry" />
        </mxCell>
        <mxCell id="9ECx5bi9FFpaeB4Dtpib-144" style="edgeStyle=orthogonalEdgeStyle;rounded=0;orthogonalLoop=1;jettySize=auto;html=1;exitX=0.5;exitY=1;exitDx=0;exitDy=0;entryX=0.5;entryY=0;entryDx=0;entryDy=0;" edge="1" parent="WIyWlLk6GJQsqaUBKTNV-1" source="9ECx5bi9FFpaeB4Dtpib-123" target="9ECx5bi9FFpaeB4Dtpib-143">
          <mxGeometry relative="1" as="geometry" />
        </mxCell>
        <mxCell id="9ECx5bi9FFpaeB4Dtpib-185" value="NO" style="edgeLabel;html=1;align=center;verticalAlign=middle;resizable=0;points=[];" vertex="1" connectable="0" parent="9ECx5bi9FFpaeB4Dtpib-144">
          <mxGeometry x="-0.55" relative="1" as="geometry">
            <mxPoint as="offset" />
          </mxGeometry>
        </mxCell>
        <mxCell id="9ECx5bi9FFpaeB4Dtpib-179" style="edgeStyle=orthogonalEdgeStyle;rounded=0;orthogonalLoop=1;jettySize=auto;html=1;exitX=1;exitY=0.5;exitDx=0;exitDy=0;entryX=0.5;entryY=0;entryDx=0;entryDy=0;" edge="1" parent="WIyWlLk6GJQsqaUBKTNV-1" source="9ECx5bi9FFpaeB4Dtpib-123" target="9ECx5bi9FFpaeB4Dtpib-138">
          <mxGeometry relative="1" as="geometry" />
        </mxCell>
        <mxCell id="9ECx5bi9FFpaeB4Dtpib-180" value="Yes" style="edgeLabel;html=1;align=center;verticalAlign=middle;resizable=0;points=[];" vertex="1" connectable="0" parent="9ECx5bi9FFpaeB4Dtpib-179">
          <mxGeometry x="-0.8618" y="2" relative="1" as="geometry">
            <mxPoint as="offset" />
          </mxGeometry>
        </mxCell>
        <mxCell id="9ECx5bi9FFpaeB4Dtpib-123" value="&lt;div&gt;탐색 장소가&lt;/div&gt;&lt;div&gt;막혀있는가?&lt;/div&gt;" style="rhombus;whiteSpace=wrap;html=1;fillColor=#e1d5e7;strokeColor=#9673a6;fontSize=15;" vertex="1" parent="WIyWlLk6GJQsqaUBKTNV-1">
          <mxGeometry x="999.9" y="2400" width="120" height="80" as="geometry" />
        </mxCell>
        <mxCell id="9ECx5bi9FFpaeB4Dtpib-156" style="edgeStyle=orthogonalEdgeStyle;rounded=0;orthogonalLoop=1;jettySize=auto;html=1;exitX=0.5;exitY=1;exitDx=0;exitDy=0;entryX=0.5;entryY=0;entryDx=0;entryDy=0;" edge="1" parent="WIyWlLk6GJQsqaUBKTNV-1" source="9ECx5bi9FFpaeB4Dtpib-126" target="9ECx5bi9FFpaeB4Dtpib-155">
          <mxGeometry relative="1" as="geometry" />
        </mxCell>
        <mxCell id="9ECx5bi9FFpaeB4Dtpib-126" value="&lt;div&gt;탐색한 블록의&lt;/div&gt;CloseShape를&lt;div&gt;None으로 변경&lt;/div&gt;" style="rounded=0;whiteSpace=wrap;html=1;fillColor=#d5e8d4;strokeColor=#82b366;fontSize=17;" vertex="1" parent="WIyWlLk6GJQsqaUBKTNV-1">
          <mxGeometry x="999.9" y="2760" width="120" height="80" as="geometry" />
        </mxCell>
        <mxCell id="9ECx5bi9FFpaeB4Dtpib-141" style="edgeStyle=orthogonalEdgeStyle;rounded=0;orthogonalLoop=1;jettySize=auto;html=1;exitX=0.5;exitY=1;exitDx=0;exitDy=0;entryX=0.5;entryY=0;entryDx=0;entryDy=0;" edge="1" parent="WIyWlLk6GJQsqaUBKTNV-1" source="9ECx5bi9FFpaeB4Dtpib-127" target="9ECx5bi9FFpaeB4Dtpib-123">
          <mxGeometry relative="1" as="geometry">
            <mxPoint x="1059.9999999999995" y="2400" as="targetPoint" />
          </mxGeometry>
        </mxCell>
        <mxCell id="9ECx5bi9FFpaeB4Dtpib-184" value="NO" style="edgeLabel;html=1;align=center;verticalAlign=middle;resizable=0;points=[];" vertex="1" connectable="0" parent="9ECx5bi9FFpaeB4Dtpib-141">
          <mxGeometry x="-0.4389" y="4" relative="1" as="geometry">
            <mxPoint as="offset" />
          </mxGeometry>
        </mxCell>
        <mxCell id="9ECx5bi9FFpaeB4Dtpib-159" style="edgeStyle=orthogonalEdgeStyle;rounded=0;orthogonalLoop=1;jettySize=auto;html=1;exitX=1;exitY=0.5;exitDx=0;exitDy=0;entryX=0.5;entryY=0;entryDx=0;entryDy=0;" edge="1" parent="WIyWlLk6GJQsqaUBKTNV-1" source="9ECx5bi9FFpaeB4Dtpib-127">
          <mxGeometry relative="1" as="geometry">
            <mxPoint x="1260" y="2600" as="targetPoint" />
          </mxGeometry>
        </mxCell>
        <mxCell id="9ECx5bi9FFpaeB4Dtpib-182" value="YES" style="edgeLabel;html=1;align=center;verticalAlign=middle;resizable=0;points=[];" vertex="1" connectable="0" parent="9ECx5bi9FFpaeB4Dtpib-159">
          <mxGeometry x="-0.9038" relative="1" as="geometry">
            <mxPoint as="offset" />
          </mxGeometry>
        </mxCell>
        <mxCell id="9ECx5bi9FFpaeB4Dtpib-127" value="&lt;div&gt;탐색할 블록이&lt;/div&gt;Number&lt;span style=&quot;background-color: initial;&quot;&gt;인가?&lt;/span&gt;" style="rhombus;whiteSpace=wrap;html=1;fillColor=#e1d5e7;strokeColor=#9673a6;fontSize=15;" vertex="1" parent="WIyWlLk6GJQsqaUBKTNV-1">
          <mxGeometry x="1000" y="2280" width="120" height="80" as="geometry" />
        </mxCell>
        <mxCell id="9ECx5bi9FFpaeB4Dtpib-130" style="edgeStyle=orthogonalEdgeStyle;rounded=0;orthogonalLoop=1;jettySize=auto;html=1;exitX=0.5;exitY=1;exitDx=0;exitDy=0;entryX=0.5;entryY=0;entryDx=0;entryDy=0;" edge="1" parent="WIyWlLk6GJQsqaUBKTNV-1" source="9ECx5bi9FFpaeB4Dtpib-128" target="9ECx5bi9FFpaeB4Dtpib-111">
          <mxGeometry relative="1" as="geometry" />
        </mxCell>
        <mxCell id="9ECx5bi9FFpaeB4Dtpib-128" value="보드판 탐색" style="shape=hexagon;perimeter=hexagonPerimeter2;whiteSpace=wrap;html=1;fixedSize=1;fontSize=17;fillColor=#fff2cc;strokeColor=#d6b656;" vertex="1" parent="WIyWlLk6GJQsqaUBKTNV-1">
          <mxGeometry x="1000.1" y="1760" width="120" height="80" as="geometry" />
        </mxCell>
        <mxCell id="9ECx5bi9FFpaeB4Dtpib-129" value="&lt;b&gt;OpenShape&lt;/b&gt;&lt;div&gt;- Normal(0)&lt;/div&gt;&lt;div&gt;- Number(1~8)&lt;/div&gt;&lt;div&gt;- Bomb&lt;/div&gt;" style="text;html=1;align=left;verticalAlign=top;whiteSpace=wrap;rounded=0;fontSize=16;fillColor=#b1ddf0;strokeColor=#10739e;" vertex="1" parent="WIyWlLk6GJQsqaUBKTNV-1">
          <mxGeometry x="680" y="-80" width="119.9" height="100" as="geometry" />
        </mxCell>
        <mxCell id="9ECx5bi9FFpaeB4Dtpib-191" style="edgeStyle=orthogonalEdgeStyle;rounded=0;orthogonalLoop=1;jettySize=auto;html=1;exitX=1;exitY=0.5;exitDx=0;exitDy=0;" edge="1" parent="WIyWlLk6GJQsqaUBKTNV-1" source="9ECx5bi9FFpaeB4Dtpib-131">
          <mxGeometry relative="1" as="geometry">
            <mxPoint x="1060" y="1240" as="targetPoint" />
            <Array as="points">
              <mxPoint x="1520" y="2640" />
              <mxPoint x="1520" y="1240" />
            </Array>
          </mxGeometry>
        </mxCell>
        <mxCell id="9ECx5bi9FFpaeB4Dtpib-131" value="탐색 종료" style="rounded=1;whiteSpace=wrap;html=1;fillColor=#dae8fc;strokeColor=#6c8ebf;fontSize=17;" vertex="1" parent="WIyWlLk6GJQsqaUBKTNV-1">
          <mxGeometry x="1360" y="2600" width="120" height="80" as="geometry" />
        </mxCell>
        <mxCell id="9ECx5bi9FFpaeB4Dtpib-133" style="edgeStyle=orthogonalEdgeStyle;rounded=0;orthogonalLoop=1;jettySize=auto;html=1;exitX=0.5;exitY=1;exitDx=0;exitDy=0;entryX=0.5;entryY=0;entryDx=0;entryDy=0;" edge="1" parent="WIyWlLk6GJQsqaUBKTNV-1" source="9ECx5bi9FFpaeB4Dtpib-132" target="9ECx5bi9FFpaeB4Dtpib-128">
          <mxGeometry relative="1" as="geometry" />
        </mxCell>
        <mxCell id="9ECx5bi9FFpaeB4Dtpib-134" value="NO" style="edgeLabel;html=1;align=center;verticalAlign=middle;resizable=0;points=[];" vertex="1" connectable="0" parent="9ECx5bi9FFpaeB4Dtpib-133">
          <mxGeometry x="-0.7175" y="-1" relative="1" as="geometry">
            <mxPoint as="offset" />
          </mxGeometry>
        </mxCell>
        <mxCell id="9ECx5bi9FFpaeB4Dtpib-136" style="edgeStyle=orthogonalEdgeStyle;rounded=0;orthogonalLoop=1;jettySize=auto;html=1;exitX=0;exitY=0.5;exitDx=0;exitDy=0;entryX=1;entryY=0.5;entryDx=0;entryDy=0;" edge="1" parent="WIyWlLk6GJQsqaUBKTNV-1" source="9ECx5bi9FFpaeB4Dtpib-132" target="9ECx5bi9FFpaeB4Dtpib-135">
          <mxGeometry relative="1" as="geometry" />
        </mxCell>
        <mxCell id="9ECx5bi9FFpaeB4Dtpib-165" value="Yes" style="edgeLabel;html=1;align=center;verticalAlign=middle;resizable=0;points=[];" vertex="1" connectable="0" parent="9ECx5bi9FFpaeB4Dtpib-136">
          <mxGeometry x="-0.3444" y="3" relative="1" as="geometry">
            <mxPoint as="offset" />
          </mxGeometry>
        </mxCell>
        <mxCell id="9ECx5bi9FFpaeB4Dtpib-132" value="숫자인가?" style="rhombus;whiteSpace=wrap;html=1;fillColor=#e1d5e7;strokeColor=#9673a6;fontSize=15;" vertex="1" parent="WIyWlLk6GJQsqaUBKTNV-1">
          <mxGeometry x="1000" y="1640" width="120" height="80" as="geometry" />
        </mxCell>
        <mxCell id="9ECx5bi9FFpaeB4Dtpib-137" style="edgeStyle=orthogonalEdgeStyle;rounded=0;orthogonalLoop=1;jettySize=auto;html=1;exitX=0.5;exitY=0;exitDx=0;exitDy=0;" edge="1" parent="WIyWlLk6GJQsqaUBKTNV-1" source="9ECx5bi9FFpaeB4Dtpib-135">
          <mxGeometry relative="1" as="geometry">
            <mxPoint x="1060" y="1240" as="targetPoint" />
            <Array as="points">
              <mxPoint x="900" y="1240" />
            </Array>
          </mxGeometry>
        </mxCell>
        <mxCell id="9ECx5bi9FFpaeB4Dtpib-135" value="CloseShape를&lt;div&gt;None으로 변경&lt;/div&gt;" style="rounded=0;whiteSpace=wrap;html=1;fillColor=#d5e8d4;strokeColor=#82b366;fontSize=17;" vertex="1" parent="WIyWlLk6GJQsqaUBKTNV-1">
          <mxGeometry x="840" y="1640" width="120" height="80" as="geometry" />
        </mxCell>
        <mxCell id="9ECx5bi9FFpaeB4Dtpib-163" style="edgeStyle=orthogonalEdgeStyle;rounded=0;orthogonalLoop=1;jettySize=auto;html=1;exitX=1;exitY=0.5;exitDx=0;exitDy=0;" edge="1" parent="WIyWlLk6GJQsqaUBKTNV-1" source="9ECx5bi9FFpaeB4Dtpib-138" target="9ECx5bi9FFpaeB4Dtpib-121">
          <mxGeometry relative="1" as="geometry" />
        </mxCell>
        <mxCell id="9ECx5bi9FFpaeB4Dtpib-138" value="Stack에서&lt;div&gt;블록 pop&lt;/div&gt;" style="rounded=0;whiteSpace=wrap;html=1;fillColor=#d5e8d4;strokeColor=#82b366;fontSize=17;" vertex="1" parent="WIyWlLk6GJQsqaUBKTNV-1">
          <mxGeometry x="1200" y="2480" width="120" height="80" as="geometry" />
        </mxCell>
        <mxCell id="9ECx5bi9FFpaeB4Dtpib-147" style="edgeStyle=orthogonalEdgeStyle;rounded=0;orthogonalLoop=1;jettySize=auto;html=1;" edge="1" parent="WIyWlLk6GJQsqaUBKTNV-1" source="9ECx5bi9FFpaeB4Dtpib-143">
          <mxGeometry relative="1" as="geometry">
            <mxPoint x="1199.9" y="2520" as="targetPoint" />
          </mxGeometry>
        </mxCell>
        <mxCell id="9ECx5bi9FFpaeB4Dtpib-183" value="NO" style="edgeLabel;html=1;align=center;verticalAlign=middle;resizable=0;points=[];" vertex="1" connectable="0" parent="9ECx5bi9FFpaeB4Dtpib-147">
          <mxGeometry x="-0.7544" y="-5" relative="1" as="geometry">
            <mxPoint as="offset" />
          </mxGeometry>
        </mxCell>
        <mxCell id="9ECx5bi9FFpaeB4Dtpib-153" style="edgeStyle=orthogonalEdgeStyle;rounded=0;orthogonalLoop=1;jettySize=auto;html=1;exitX=0.5;exitY=1;exitDx=0;exitDy=0;entryX=0.5;entryY=0;entryDx=0;entryDy=0;" edge="1" parent="WIyWlLk6GJQsqaUBKTNV-1" source="9ECx5bi9FFpaeB4Dtpib-143" target="9ECx5bi9FFpaeB4Dtpib-150">
          <mxGeometry relative="1" as="geometry" />
        </mxCell>
        <mxCell id="9ECx5bi9FFpaeB4Dtpib-186" value="YES" style="edgeLabel;html=1;align=center;verticalAlign=middle;resizable=0;points=[];" vertex="1" connectable="0" parent="9ECx5bi9FFpaeB4Dtpib-153">
          <mxGeometry x="-0.4944" y="2" relative="1" as="geometry">
            <mxPoint as="offset" />
          </mxGeometry>
        </mxCell>
        <mxCell id="9ECx5bi9FFpaeB4Dtpib-143" value="탐색하려는&lt;div&gt;블록의 타입이&lt;/div&gt;&lt;div&gt;Block인가?&lt;/div&gt;" style="rhombus;whiteSpace=wrap;html=1;fillColor=#e1d5e7;strokeColor=#9673a6;fontSize=15;" vertex="1" parent="WIyWlLk6GJQsqaUBKTNV-1">
          <mxGeometry x="999.9" y="2520" width="120" height="80" as="geometry" />
        </mxCell>
        <mxCell id="9ECx5bi9FFpaeB4Dtpib-151" style="edgeStyle=orthogonalEdgeStyle;rounded=0;orthogonalLoop=1;jettySize=auto;html=1;exitX=1;exitY=0.5;exitDx=0;exitDy=0;entryX=0.5;entryY=1;entryDx=0;entryDy=0;" edge="1" parent="WIyWlLk6GJQsqaUBKTNV-1" source="9ECx5bi9FFpaeB4Dtpib-150">
          <mxGeometry relative="1" as="geometry">
            <mxPoint x="1259.9" y="2560" as="targetPoint" />
          </mxGeometry>
        </mxCell>
        <mxCell id="9ECx5bi9FFpaeB4Dtpib-152" value="Yes" style="edgeLabel;html=1;align=center;verticalAlign=middle;resizable=0;points=[];" vertex="1" connectable="0" parent="9ECx5bi9FFpaeB4Dtpib-151">
          <mxGeometry x="-0.8615" y="1" relative="1" as="geometry">
            <mxPoint as="offset" />
          </mxGeometry>
        </mxCell>
        <mxCell id="9ECx5bi9FFpaeB4Dtpib-154" style="edgeStyle=orthogonalEdgeStyle;rounded=0;orthogonalLoop=1;jettySize=auto;html=1;exitX=0.5;exitY=1;exitDx=0;exitDy=0;entryX=0.5;entryY=0;entryDx=0;entryDy=0;" edge="1" parent="WIyWlLk6GJQsqaUBKTNV-1" source="9ECx5bi9FFpaeB4Dtpib-150" target="9ECx5bi9FFpaeB4Dtpib-126">
          <mxGeometry relative="1" as="geometry" />
        </mxCell>
        <mxCell id="9ECx5bi9FFpaeB4Dtpib-187" value="NO" style="edgeLabel;html=1;align=center;verticalAlign=middle;resizable=0;points=[];" vertex="1" connectable="0" parent="9ECx5bi9FFpaeB4Dtpib-154">
          <mxGeometry x="-0.7167" y="2" relative="1" as="geometry">
            <mxPoint as="offset" />
          </mxGeometry>
        </mxCell>
        <mxCell id="9ECx5bi9FFpaeB4Dtpib-150" value="탐색하려는&lt;div&gt;블록의 타입이&lt;/div&gt;&lt;div&gt;Bomb인가?&lt;/div&gt;" style="rhombus;whiteSpace=wrap;html=1;fillColor=#e1d5e7;strokeColor=#9673a6;fontSize=15;" vertex="1" parent="WIyWlLk6GJQsqaUBKTNV-1">
          <mxGeometry x="999.9" y="2640" width="120" height="80" as="geometry" />
        </mxCell>
        <mxCell id="9ECx5bi9FFpaeB4Dtpib-188" style="edgeStyle=orthogonalEdgeStyle;rounded=0;orthogonalLoop=1;jettySize=auto;html=1;exitX=0;exitY=0.5;exitDx=0;exitDy=0;" edge="1" parent="WIyWlLk6GJQsqaUBKTNV-1" source="9ECx5bi9FFpaeB4Dtpib-155">
          <mxGeometry relative="1" as="geometry">
            <mxPoint x="1060" y="2240" as="targetPoint" />
            <Array as="points">
              <mxPoint x="960" y="2920" />
              <mxPoint x="960" y="2240" />
            </Array>
          </mxGeometry>
        </mxCell>
        <mxCell id="9ECx5bi9FFpaeB4Dtpib-155" value="Stack에&lt;div&gt;탐색하던&lt;br&gt;&lt;div&gt;블록 삽입&lt;/div&gt;&lt;/div&gt;" style="rounded=0;whiteSpace=wrap;html=1;fillColor=#d5e8d4;strokeColor=#82b366;fontSize=17;" vertex="1" parent="WIyWlLk6GJQsqaUBKTNV-1">
          <mxGeometry x="999.9" y="2880" width="120" height="80" as="geometry" />
        </mxCell>
        <mxCell id="9ECx5bi9FFpaeB4Dtpib-203" value="int length&lt;div style=&quot;font-size: 16px;&quot;&gt;int height&lt;/div&gt;&lt;div style=&quot;font-size: 16px;&quot;&gt;int mineNum&lt;/div&gt;&lt;div style=&quot;font-size: 16px;&quot;&gt;int[][] board&lt;br style=&quot;font-size: 16px;&quot;&gt;&lt;/div&gt;" style="rounded=0;whiteSpace=wrap;html=1;fillColor=#fad9d5;strokeColor=#ae4132;fontSize=16;align=center;" vertex="1" parent="WIyWlLk6GJQsqaUBKTNV-1">
          <mxGeometry x="560" y="-240" width="120" height="120" as="geometry" />
        </mxCell>
        <mxCell id="9ECx5bi9FFpaeB4Dtpib-204" value="Block" style="rounded=0;whiteSpace=wrap;html=1;fillColor=#b0e3e6;strokeColor=#0e8088;fontSize=16;fontStyle=1" vertex="1" parent="WIyWlLk6GJQsqaUBKTNV-1">
          <mxGeometry x="540" y="80" width="160" height="80" as="geometry" />
        </mxCell>
        <mxCell id="9ECx5bi9FFpaeB4Dtpib-207" style="edgeStyle=orthogonalEdgeStyle;rounded=0;orthogonalLoop=1;jettySize=auto;html=1;exitX=0.5;exitY=0;exitDx=0;exitDy=0;entryX=0.25;entryY=1;entryDx=0;entryDy=0;" edge="1" parent="WIyWlLk6GJQsqaUBKTNV-1" source="9ECx5bi9FFpaeB4Dtpib-205" target="9ECx5bi9FFpaeB4Dtpib-204">
          <mxGeometry relative="1" as="geometry" />
        </mxCell>
        <mxCell id="9ECx5bi9FFpaeB4Dtpib-205" value="NumberBlock" style="rounded=0;whiteSpace=wrap;html=1;fillColor=#b0e3e6;strokeColor=#0e8088;fontSize=16;fontStyle=1" vertex="1" parent="WIyWlLk6GJQsqaUBKTNV-1">
          <mxGeometry x="440" y="240" width="160" height="80" as="geometry" />
        </mxCell>
        <mxCell id="9ECx5bi9FFpaeB4Dtpib-206" value="BombBlock" style="rounded=0;whiteSpace=wrap;html=1;fillColor=#b0e3e6;strokeColor=#0e8088;fontSize=16;fontStyle=1" vertex="1" parent="WIyWlLk6GJQsqaUBKTNV-1">
          <mxGeometry x="639.9" y="240" width="160" height="80" as="geometry" />
        </mxCell>
        <mxCell id="9ECx5bi9FFpaeB4Dtpib-208" style="edgeStyle=orthogonalEdgeStyle;rounded=0;orthogonalLoop=1;jettySize=auto;html=1;exitX=0.5;exitY=0;exitDx=0;exitDy=0;entryX=0.706;entryY=1.032;entryDx=0;entryDy=0;entryPerimeter=0;" edge="1" parent="WIyWlLk6GJQsqaUBKTNV-1" source="9ECx5bi9FFpaeB4Dtpib-206" target="9ECx5bi9FFpaeB4Dtpib-204">
          <mxGeometry relative="1" as="geometry" />
        </mxCell>
      </root>
    </mxGraphModel>
  </diagram>
</mxfile>
